<mxfile host="app.diagrams.net" agent="Mozilla/5.0 (X11; Linux x86_64) AppleWebKit/537.36 (KHTML, like Gecko) Chrome/133.0.0.0 Safari/537.36" version="26.1.0">
  <diagram name="Страница — 1" id="AnABjivSj9SFaDWMfIXY">
    <mxGraphModel dx="2307" dy="1129" grid="1" gridSize="10" guides="1" tooltips="1" connect="1" arrows="1" fold="1" page="1" pageScale="1" pageWidth="827" pageHeight="1169" math="0" shadow="0">
      <root>
        <mxCell id="0" />
        <mxCell id="1" parent="0" />
        <mxCell id="DPjes27tQ5IV9PSLa_6h-2" value="&lt;div&gt;&lt;span style=&quot;font-weight: normal;&quot;&gt;&amp;lt;&amp;lt;utility&amp;gt;&amp;gt;&lt;/span&gt;&lt;/div&gt;BotRequestFabric" style="swimlane;fontStyle=1;align=center;verticalAlign=top;childLayout=stackLayout;horizontal=1;startSize=40;horizontalStack=0;resizeParent=1;resizeParentMax=0;resizeLast=0;collapsible=1;marginBottom=0;whiteSpace=wrap;html=1;" parent="1" vertex="1">
          <mxGeometry x="-180" y="276" width="300" height="152" as="geometry" />
        </mxCell>
        <mxCell id="DPjes27tQ5IV9PSLa_6h-3" value="- typesRequest: map&amp;lt;string, BotRequest&amp;gt;" style="text;strokeColor=none;fillColor=none;align=left;verticalAlign=top;spacingLeft=4;spacingRight=4;overflow=hidden;rotatable=0;points=[[0,0.5],[1,0.5]];portConstraint=eastwest;whiteSpace=wrap;html=1;" parent="DPjes27tQ5IV9PSLa_6h-2" vertex="1">
          <mxGeometry y="40" width="300" height="26" as="geometry" />
        </mxCell>
        <mxCell id="DPjes27tQ5IV9PSLa_6h-4" value="" style="line;strokeWidth=1;fillColor=none;align=left;verticalAlign=middle;spacingTop=-1;spacingLeft=3;spacingRight=3;rotatable=0;labelPosition=right;points=[];portConstraint=eastwest;strokeColor=inherit;" parent="DPjes27tQ5IV9PSLa_6h-2" vertex="1">
          <mxGeometry y="66" width="300" height="8" as="geometry" />
        </mxCell>
        <mxCell id="DPjes27tQ5IV9PSLa_6h-5" value="+ connect(token:string): bool" style="text;strokeColor=none;fillColor=none;align=left;verticalAlign=top;spacingLeft=4;spacingRight=4;overflow=hidden;rotatable=0;points=[[0,0.5],[1,0.5]];portConstraint=eastwest;whiteSpace=wrap;html=1;" parent="DPjes27tQ5IV9PSLa_6h-2" vertex="1">
          <mxGeometry y="74" width="300" height="26" as="geometry" />
        </mxCell>
        <mxCell id="hyMspMxgV_skVNlcGcTQ-85" value="+ start(): void" style="text;strokeColor=none;fillColor=none;align=left;verticalAlign=top;spacingLeft=4;spacingRight=4;overflow=hidden;rotatable=0;points=[[0,0.5],[1,0.5]];portConstraint=eastwest;whiteSpace=wrap;html=1;" vertex="1" parent="DPjes27tQ5IV9PSLa_6h-2">
          <mxGeometry y="100" width="300" height="26" as="geometry" />
        </mxCell>
        <mxCell id="hyMspMxgV_skVNlcGcTQ-86" value="+ stop(): void" style="text;strokeColor=none;fillColor=none;align=left;verticalAlign=top;spacingLeft=4;spacingRight=4;overflow=hidden;rotatable=0;points=[[0,0.5],[1,0.5]];portConstraint=eastwest;whiteSpace=wrap;html=1;" vertex="1" parent="DPjes27tQ5IV9PSLa_6h-2">
          <mxGeometry y="126" width="300" height="26" as="geometry" />
        </mxCell>
        <mxCell id="hyMspMxgV_skVNlcGcTQ-6" value="&lt;div&gt;&lt;span style=&quot;font-weight: normal;&quot;&gt;&amp;lt;&amp;lt;utility&amp;gt;&amp;gt;&lt;/span&gt;&lt;/div&gt;WorkerManager" style="swimlane;fontStyle=1;align=center;verticalAlign=top;childLayout=stackLayout;horizontal=1;startSize=40;horizontalStack=0;resizeParent=1;resizeParentMax=0;resizeLast=0;collapsible=1;marginBottom=0;whiteSpace=wrap;html=1;" vertex="1" parent="1">
          <mxGeometry x="630" y="130" width="150" height="204" as="geometry" />
        </mxCell>
        <mxCell id="hyMspMxgV_skVNlcGcTQ-7" value="- tasks: list&amp;lt;Task&amp;gt;" style="text;strokeColor=none;fillColor=none;align=left;verticalAlign=top;spacingLeft=4;spacingRight=4;overflow=hidden;rotatable=0;points=[[0,0.5],[1,0.5]];portConstraint=eastwest;whiteSpace=wrap;html=1;" vertex="1" parent="hyMspMxgV_skVNlcGcTQ-6">
          <mxGeometry y="40" width="150" height="26" as="geometry" />
        </mxCell>
        <mxCell id="hyMspMxgV_skVNlcGcTQ-27" value="- workers: list&amp;lt;thread&amp;gt;" style="text;strokeColor=none;fillColor=none;align=left;verticalAlign=top;spacingLeft=4;spacingRight=4;overflow=hidden;rotatable=0;points=[[0,0.5],[1,0.5]];portConstraint=eastwest;whiteSpace=wrap;html=1;" vertex="1" parent="hyMspMxgV_skVNlcGcTQ-6">
          <mxGeometry y="66" width="150" height="26" as="geometry" />
        </mxCell>
        <mxCell id="hyMspMxgV_skVNlcGcTQ-8" value="" style="line;strokeWidth=1;fillColor=none;align=left;verticalAlign=middle;spacingTop=-1;spacingLeft=3;spacingRight=3;rotatable=0;labelPosition=right;points=[];portConstraint=eastwest;strokeColor=inherit;" vertex="1" parent="hyMspMxgV_skVNlcGcTQ-6">
          <mxGeometry y="92" width="150" height="8" as="geometry" />
        </mxCell>
        <mxCell id="hyMspMxgV_skVNlcGcTQ-9" value="+ giveTask(Task): void" style="text;strokeColor=none;fillColor=none;align=left;verticalAlign=top;spacingLeft=4;spacingRight=4;overflow=hidden;rotatable=0;points=[[0,0.5],[1,0.5]];portConstraint=eastwest;whiteSpace=wrap;html=1;" vertex="1" parent="hyMspMxgV_skVNlcGcTQ-6">
          <mxGeometry y="100" width="150" height="26" as="geometry" />
        </mxCell>
        <mxCell id="hyMspMxgV_skVNlcGcTQ-28" value="+ addWorker(): void" style="text;strokeColor=none;fillColor=none;align=left;verticalAlign=top;spacingLeft=4;spacingRight=4;overflow=hidden;rotatable=0;points=[[0,0.5],[1,0.5]];portConstraint=eastwest;whiteSpace=wrap;html=1;" vertex="1" parent="hyMspMxgV_skVNlcGcTQ-6">
          <mxGeometry y="126" width="150" height="26" as="geometry" />
        </mxCell>
        <mxCell id="hyMspMxgV_skVNlcGcTQ-29" value="+ deleteWorker(): void" style="text;strokeColor=none;fillColor=none;align=left;verticalAlign=top;spacingLeft=4;spacingRight=4;overflow=hidden;rotatable=0;points=[[0,0.5],[1,0.5]];portConstraint=eastwest;whiteSpace=wrap;html=1;" vertex="1" parent="hyMspMxgV_skVNlcGcTQ-6">
          <mxGeometry y="152" width="150" height="26" as="geometry" />
        </mxCell>
        <mxCell id="hyMspMxgV_skVNlcGcTQ-30" value="+ stop(): void" style="text;strokeColor=none;fillColor=none;align=left;verticalAlign=top;spacingLeft=4;spacingRight=4;overflow=hidden;rotatable=0;points=[[0,0.5],[1,0.5]];portConstraint=eastwest;whiteSpace=wrap;html=1;" vertex="1" parent="hyMspMxgV_skVNlcGcTQ-6">
          <mxGeometry y="178" width="150" height="26" as="geometry" />
        </mxCell>
        <mxCell id="hyMspMxgV_skVNlcGcTQ-75" style="edgeStyle=orthogonalEdgeStyle;rounded=0;orthogonalLoop=1;jettySize=auto;html=1;exitX=0.5;exitY=0;exitDx=0;exitDy=0;entryX=0.5;entryY=1;entryDx=0;entryDy=0;dashed=1;endSize=15;endArrow=open;endFill=0;" edge="1" parent="1" source="hyMspMxgV_skVNlcGcTQ-19" target="hyMspMxgV_skVNlcGcTQ-60">
          <mxGeometry relative="1" as="geometry" />
        </mxCell>
        <mxCell id="hyMspMxgV_skVNlcGcTQ-19" value="&lt;div&gt;&lt;span style=&quot;font-weight: 400;&quot;&gt;&amp;lt;&amp;lt;utility&amp;gt;&amp;gt;&lt;/span&gt;&lt;/div&gt;SearchGameEngine" style="swimlane;fontStyle=1;align=center;verticalAlign=top;childLayout=stackLayout;horizontal=1;startSize=40;horizontalStack=0;resizeParent=1;resizeParentMax=0;resizeLast=0;collapsible=1;marginBottom=0;whiteSpace=wrap;html=1;" vertex="1" parent="1">
          <mxGeometry x="320" y="660" width="160" height="178" as="geometry" />
        </mxCell>
        <mxCell id="hyMspMxgV_skVNlcGcTQ-112" value="- nodes: vector&amp;lt;Node&amp;gt;" style="text;strokeColor=none;fillColor=none;align=left;verticalAlign=top;spacingLeft=4;spacingRight=4;overflow=hidden;rotatable=0;points=[[0,0.5],[1,0.5]];portConstraint=eastwest;whiteSpace=wrap;html=1;" vertex="1" parent="hyMspMxgV_skVNlcGcTQ-19">
          <mxGeometry y="40" width="160" height="26" as="geometry" />
        </mxCell>
        <mxCell id="hyMspMxgV_skVNlcGcTQ-113" value="- start: *Node" style="text;strokeColor=none;fillColor=none;align=left;verticalAlign=top;spacingLeft=4;spacingRight=4;overflow=hidden;rotatable=0;points=[[0,0.5],[1,0.5]];portConstraint=eastwest;whiteSpace=wrap;html=1;" vertex="1" parent="hyMspMxgV_skVNlcGcTQ-19">
          <mxGeometry y="66" width="160" height="26" as="geometry" />
        </mxCell>
        <mxCell id="hyMspMxgV_skVNlcGcTQ-114" value="- ids: vector&amp;lt;string&amp;gt;" style="text;strokeColor=none;fillColor=none;align=left;verticalAlign=top;spacingLeft=4;spacingRight=4;overflow=hidden;rotatable=0;points=[[0,0.5],[1,0.5]];portConstraint=eastwest;whiteSpace=wrap;html=1;" vertex="1" parent="hyMspMxgV_skVNlcGcTQ-19">
          <mxGeometry y="92" width="160" height="26" as="geometry" />
        </mxCell>
        <mxCell id="hyMspMxgV_skVNlcGcTQ-21" value="" style="line;strokeWidth=1;fillColor=none;align=left;verticalAlign=middle;spacingTop=-1;spacingLeft=3;spacingRight=3;rotatable=0;labelPosition=right;points=[];portConstraint=eastwest;strokeColor=inherit;" vertex="1" parent="hyMspMxgV_skVNlcGcTQ-19">
          <mxGeometry y="118" width="160" height="8" as="geometry" />
        </mxCell>
        <mxCell id="hyMspMxgV_skVNlcGcTQ-22" value="+ find(string): string" style="text;strokeColor=none;fillColor=none;align=left;verticalAlign=top;spacingLeft=4;spacingRight=4;overflow=hidden;rotatable=0;points=[[0,0.5],[1,0.5]];portConstraint=eastwest;whiteSpace=wrap;html=1;" vertex="1" parent="hyMspMxgV_skVNlcGcTQ-19">
          <mxGeometry y="126" width="160" height="26" as="geometry" />
        </mxCell>
        <mxCell id="hyMspMxgV_skVNlcGcTQ-72" value="+ add(string): string" style="text;strokeColor=none;fillColor=none;align=left;verticalAlign=top;spacingLeft=4;spacingRight=4;overflow=hidden;rotatable=0;points=[[0,0.5],[1,0.5]];portConstraint=eastwest;whiteSpace=wrap;html=1;" vertex="1" parent="hyMspMxgV_skVNlcGcTQ-19">
          <mxGeometry y="152" width="160" height="26" as="geometry" />
        </mxCell>
        <mxCell id="hyMspMxgV_skVNlcGcTQ-23" value="&lt;div&gt;&lt;span style=&quot;font-weight: normal;&quot;&gt;&amp;lt;&amp;lt;interface&amp;gt;&amp;gt;&lt;/span&gt;&lt;/div&gt;Task" style="swimlane;fontStyle=1;align=center;verticalAlign=top;childLayout=stackLayout;horizontal=1;startSize=40;horizontalStack=0;resizeParent=1;resizeParentMax=0;resizeLast=0;collapsible=1;marginBottom=0;whiteSpace=wrap;html=1;" vertex="1" parent="1">
          <mxGeometry x="400" y="150" width="160" height="66" as="geometry" />
        </mxCell>
        <mxCell id="hyMspMxgV_skVNlcGcTQ-26" value="+ execute(): void" style="text;strokeColor=none;fillColor=none;align=left;verticalAlign=top;spacingLeft=4;spacingRight=4;overflow=hidden;rotatable=0;points=[[0,0.5],[1,0.5]];portConstraint=eastwest;whiteSpace=wrap;html=1;" vertex="1" parent="hyMspMxgV_skVNlcGcTQ-23">
          <mxGeometry y="40" width="160" height="26" as="geometry" />
        </mxCell>
        <mxCell id="hyMspMxgV_skVNlcGcTQ-36" style="edgeStyle=orthogonalEdgeStyle;rounded=0;orthogonalLoop=1;jettySize=auto;html=1;entryX=0;entryY=0.5;entryDx=0;entryDy=0;endArrow=diamondThin;endFill=0;strokeWidth=1;startSize=12;jumpSize=12;endSize=15;exitX=1;exitY=0.5;exitDx=0;exitDy=0;" edge="1" parent="1" source="hyMspMxgV_skVNlcGcTQ-23" target="hyMspMxgV_skVNlcGcTQ-7">
          <mxGeometry relative="1" as="geometry" />
        </mxCell>
        <mxCell id="hyMspMxgV_skVNlcGcTQ-43" style="edgeStyle=orthogonalEdgeStyle;rounded=0;orthogonalLoop=1;jettySize=auto;html=1;entryX=0.5;entryY=1;entryDx=0;entryDy=0;endArrow=block;endFill=0;endSize=15;" edge="1" parent="1" source="hyMspMxgV_skVNlcGcTQ-39" target="hyMspMxgV_skVNlcGcTQ-23">
          <mxGeometry relative="1" as="geometry" />
        </mxCell>
        <mxCell id="hyMspMxgV_skVNlcGcTQ-39" value="&lt;div&gt;&lt;span style=&quot;font-weight: normal;&quot;&gt;&amp;lt;&amp;lt;abstract&amp;gt;&amp;gt;&lt;/span&gt;&lt;/div&gt;BotRequest" style="swimlane;fontStyle=1;align=center;verticalAlign=top;childLayout=stackLayout;horizontal=1;startSize=44;horizontalStack=0;resizeParent=1;resizeParentMax=0;resizeLast=0;collapsible=1;marginBottom=0;whiteSpace=wrap;html=1;" vertex="1" parent="1">
          <mxGeometry x="193.75" y="276" width="392.5" height="156" as="geometry" />
        </mxCell>
        <mxCell id="hyMspMxgV_skVNlcGcTQ-40" value="# user_name: string&lt;div&gt;&lt;br&gt;&lt;/div&gt;" style="text;strokeColor=none;fillColor=none;align=left;verticalAlign=top;spacingLeft=4;spacingRight=4;overflow=hidden;rotatable=0;points=[[0,0.5],[1,0.5]];portConstraint=eastwest;whiteSpace=wrap;html=1;" vertex="1" parent="hyMspMxgV_skVNlcGcTQ-39">
          <mxGeometry y="44" width="392.5" height="26" as="geometry" />
        </mxCell>
        <mxCell id="hyMspMxgV_skVNlcGcTQ-47" value="# params: vector&amp;lt;string&amp;gt;&lt;div&gt;&lt;br&gt;&lt;/div&gt;" style="text;strokeColor=none;fillColor=none;align=left;verticalAlign=top;spacingLeft=4;spacingRight=4;overflow=hidden;rotatable=0;points=[[0,0.5],[1,0.5]];portConstraint=eastwest;whiteSpace=wrap;html=1;" vertex="1" parent="hyMspMxgV_skVNlcGcTQ-39">
          <mxGeometry y="70" width="392.5" height="26" as="geometry" />
        </mxCell>
        <mxCell id="hyMspMxgV_skVNlcGcTQ-44" value="+ name: string" style="text;strokeColor=none;fillColor=none;align=left;verticalAlign=top;spacingLeft=4;spacingRight=4;overflow=hidden;rotatable=0;points=[[0,0.5],[1,0.5]];portConstraint=eastwest;whiteSpace=wrap;html=1;" vertex="1" parent="hyMspMxgV_skVNlcGcTQ-39">
          <mxGeometry y="96" width="392.5" height="26" as="geometry" />
        </mxCell>
        <mxCell id="hyMspMxgV_skVNlcGcTQ-46" value="" style="line;strokeWidth=1;fillColor=none;align=left;verticalAlign=middle;spacingTop=-1;spacingLeft=3;spacingRight=3;rotatable=0;labelPosition=right;points=[];portConstraint=eastwest;strokeColor=inherit;" vertex="1" parent="hyMspMxgV_skVNlcGcTQ-39">
          <mxGeometry y="122" width="392.5" height="8" as="geometry" />
        </mxCell>
        <mxCell id="hyMspMxgV_skVNlcGcTQ-45" value="+ clone(user: string, params: vector&amp;lt;string&amp;gt;): BotRequest" style="text;strokeColor=none;fillColor=none;align=left;verticalAlign=top;spacingLeft=4;spacingRight=4;overflow=hidden;rotatable=0;points=[[0,0.5],[1,0.5]];portConstraint=eastwest;whiteSpace=wrap;html=1;" vertex="1" parent="hyMspMxgV_skVNlcGcTQ-39">
          <mxGeometry y="130" width="392.5" height="26" as="geometry" />
        </mxCell>
        <mxCell id="hyMspMxgV_skVNlcGcTQ-50" style="edgeStyle=orthogonalEdgeStyle;rounded=0;orthogonalLoop=1;jettySize=auto;html=1;entryX=1;entryY=0.5;entryDx=0;entryDy=0;endArrow=diamondThin;endFill=0;endSize=15;" edge="1" parent="1" source="hyMspMxgV_skVNlcGcTQ-47" target="DPjes27tQ5IV9PSLa_6h-3">
          <mxGeometry relative="1" as="geometry" />
        </mxCell>
        <mxCell id="hyMspMxgV_skVNlcGcTQ-62" style="edgeStyle=orthogonalEdgeStyle;rounded=0;orthogonalLoop=1;jettySize=auto;html=1;exitX=0.5;exitY=0;exitDx=0;exitDy=0;endArrow=block;endFill=0;endSize=15;dashed=1;" edge="1" parent="1" source="hyMspMxgV_skVNlcGcTQ-52" target="hyMspMxgV_skVNlcGcTQ-39">
          <mxGeometry relative="1" as="geometry" />
        </mxCell>
        <mxCell id="hyMspMxgV_skVNlcGcTQ-52" value="&lt;b&gt;Registration&lt;/b&gt;" style="html=1;whiteSpace=wrap;" vertex="1" parent="1">
          <mxGeometry x="-170" y="520" width="110" height="50" as="geometry" />
        </mxCell>
        <mxCell id="hyMspMxgV_skVNlcGcTQ-54" value="&lt;b&gt;AddFriend&lt;/b&gt;" style="html=1;whiteSpace=wrap;" vertex="1" parent="1">
          <mxGeometry x="-40" y="520" width="110" height="50" as="geometry" />
        </mxCell>
        <mxCell id="hyMspMxgV_skVNlcGcTQ-55" value="&lt;b&gt;FindGam&lt;/b&gt;&lt;span style=&quot;color: rgba(0, 0, 0, 0); font-family: monospace; font-size: 0px; text-align: start; text-wrap-mode: nowrap;&quot;&gt;%3CmxGraphModel%3E%3Croot%3E%3CmxCell%20id%3D%220%22%2F%3E%3CmxCell%20id%3D%221%22%20parent%3D%220%22%2F%3E%3CmxCell%20id%3D%222%22%20value%3D%22%26lt%3Bb%26gt%3BAddPerson%26lt%3B%2Fb%26gt%3B%22%20style%3D%22html%3D1%3BwhiteSpace%3Dwrap%3B%22%20vertex%3D%221%22%20parent%3D%221%22%3E%3CmxGeometry%20x%3D%22270%22%20y%3D%22500%22%20width%3D%22110%22%20height%3D%2250%22%20as%3D%22geometry%22%2F%3E%3C%2FmxCell%3E%3C%2Froot%3E%3C%2FmxGraphModel%3E&lt;/span&gt;&lt;b&gt;e&lt;/b&gt;" style="html=1;whiteSpace=wrap;" vertex="1" parent="1">
          <mxGeometry x="90" y="520" width="110" height="50" as="geometry" />
        </mxCell>
        <mxCell id="hyMspMxgV_skVNlcGcTQ-56" value="&lt;b&gt;AskGiveGame&lt;/b&gt;" style="html=1;whiteSpace=wrap;" vertex="1" parent="1">
          <mxGeometry x="480" y="520" width="110" height="50" as="geometry" />
        </mxCell>
        <mxCell id="hyMspMxgV_skVNlcGcTQ-57" value="&lt;b&gt;GiveGame&lt;/b&gt;" style="html=1;whiteSpace=wrap;" vertex="1" parent="1">
          <mxGeometry x="610" y="520" width="100" height="50" as="geometry" />
        </mxCell>
        <mxCell id="hyMspMxgV_skVNlcGcTQ-58" value="&lt;b&gt;AddGame&lt;/b&gt;" style="html=1;whiteSpace=wrap;" vertex="1" parent="1">
          <mxGeometry x="220" y="520" width="110" height="50" as="geometry" />
        </mxCell>
        <mxCell id="hyMspMxgV_skVNlcGcTQ-59" value="&lt;b&gt;ViewList&lt;/b&gt;" style="html=1;whiteSpace=wrap;" vertex="1" parent="1">
          <mxGeometry x="350" y="520" width="110" height="50" as="geometry" />
        </mxCell>
        <mxCell id="hyMspMxgV_skVNlcGcTQ-60" value="&lt;b&gt;AddGameInSearch&lt;/b&gt;" style="html=1;whiteSpace=wrap;" vertex="1" parent="1">
          <mxGeometry x="730" y="520" width="110" height="50" as="geometry" />
        </mxCell>
        <mxCell id="hyMspMxgV_skVNlcGcTQ-61" value="&lt;b&gt;AddSuggestion&lt;/b&gt;" style="html=1;whiteSpace=wrap;" vertex="1" parent="1">
          <mxGeometry x="860" y="520" width="110" height="50" as="geometry" />
        </mxCell>
        <mxCell id="hyMspMxgV_skVNlcGcTQ-64" style="edgeStyle=orthogonalEdgeStyle;rounded=0;orthogonalLoop=1;jettySize=auto;html=1;exitX=0.5;exitY=0;exitDx=0;exitDy=0;endArrow=block;endFill=0;endSize=15;dashed=1;" edge="1" parent="1" source="hyMspMxgV_skVNlcGcTQ-54" target="hyMspMxgV_skVNlcGcTQ-39">
          <mxGeometry relative="1" as="geometry">
            <mxPoint x="-105" y="530" as="sourcePoint" />
            <mxPoint x="400" y="442" as="targetPoint" />
          </mxGeometry>
        </mxCell>
        <mxCell id="hyMspMxgV_skVNlcGcTQ-65" style="edgeStyle=orthogonalEdgeStyle;rounded=0;orthogonalLoop=1;jettySize=auto;html=1;exitX=0.5;exitY=0;exitDx=0;exitDy=0;endArrow=block;endFill=0;endSize=15;dashed=1;" edge="1" parent="1" source="hyMspMxgV_skVNlcGcTQ-55" target="hyMspMxgV_skVNlcGcTQ-39">
          <mxGeometry relative="1" as="geometry">
            <mxPoint x="-95" y="540" as="sourcePoint" />
            <mxPoint x="410" y="452" as="targetPoint" />
          </mxGeometry>
        </mxCell>
        <mxCell id="hyMspMxgV_skVNlcGcTQ-66" style="edgeStyle=orthogonalEdgeStyle;rounded=0;orthogonalLoop=1;jettySize=auto;html=1;exitX=0.5;exitY=0;exitDx=0;exitDy=0;endArrow=block;endFill=0;endSize=15;dashed=1;" edge="1" parent="1" source="hyMspMxgV_skVNlcGcTQ-58" target="hyMspMxgV_skVNlcGcTQ-39">
          <mxGeometry relative="1" as="geometry">
            <mxPoint x="-85" y="550" as="sourcePoint" />
            <mxPoint x="420" y="462" as="targetPoint" />
          </mxGeometry>
        </mxCell>
        <mxCell id="hyMspMxgV_skVNlcGcTQ-67" style="edgeStyle=orthogonalEdgeStyle;rounded=0;orthogonalLoop=1;jettySize=auto;html=1;exitX=0.5;exitY=0;exitDx=0;exitDy=0;endArrow=block;endFill=0;endSize=15;dashed=1;" edge="1" parent="1" source="hyMspMxgV_skVNlcGcTQ-59" target="hyMspMxgV_skVNlcGcTQ-39">
          <mxGeometry relative="1" as="geometry">
            <mxPoint x="-75" y="560" as="sourcePoint" />
            <mxPoint x="430" y="472" as="targetPoint" />
          </mxGeometry>
        </mxCell>
        <mxCell id="hyMspMxgV_skVNlcGcTQ-68" style="edgeStyle=orthogonalEdgeStyle;rounded=0;orthogonalLoop=1;jettySize=auto;html=1;exitX=0.5;exitY=0;exitDx=0;exitDy=0;endArrow=block;endFill=0;endSize=15;dashed=1;" edge="1" parent="1" source="hyMspMxgV_skVNlcGcTQ-56" target="hyMspMxgV_skVNlcGcTQ-39">
          <mxGeometry relative="1" as="geometry">
            <mxPoint x="-65" y="570" as="sourcePoint" />
            <mxPoint x="440" y="482" as="targetPoint" />
          </mxGeometry>
        </mxCell>
        <mxCell id="hyMspMxgV_skVNlcGcTQ-69" style="edgeStyle=orthogonalEdgeStyle;rounded=0;orthogonalLoop=1;jettySize=auto;html=1;exitX=0.5;exitY=0;exitDx=0;exitDy=0;endArrow=block;endFill=0;endSize=15;dashed=1;" edge="1" parent="1" source="hyMspMxgV_skVNlcGcTQ-57" target="hyMspMxgV_skVNlcGcTQ-39">
          <mxGeometry relative="1" as="geometry">
            <mxPoint x="-55" y="580" as="sourcePoint" />
            <mxPoint x="450" y="492" as="targetPoint" />
          </mxGeometry>
        </mxCell>
        <mxCell id="hyMspMxgV_skVNlcGcTQ-70" style="edgeStyle=orthogonalEdgeStyle;rounded=0;orthogonalLoop=1;jettySize=auto;html=1;exitX=0.5;exitY=0;exitDx=0;exitDy=0;endArrow=block;endFill=0;endSize=15;dashed=1;" edge="1" parent="1" source="hyMspMxgV_skVNlcGcTQ-60" target="hyMspMxgV_skVNlcGcTQ-39">
          <mxGeometry relative="1" as="geometry">
            <mxPoint x="-45" y="590" as="sourcePoint" />
            <mxPoint x="460" y="502" as="targetPoint" />
          </mxGeometry>
        </mxCell>
        <mxCell id="hyMspMxgV_skVNlcGcTQ-71" style="edgeStyle=orthogonalEdgeStyle;rounded=0;orthogonalLoop=1;jettySize=auto;html=1;exitX=0.5;exitY=0;exitDx=0;exitDy=0;endArrow=block;endFill=0;endSize=15;dashed=1;" edge="1" parent="1" source="hyMspMxgV_skVNlcGcTQ-61" target="hyMspMxgV_skVNlcGcTQ-39">
          <mxGeometry relative="1" as="geometry">
            <mxPoint x="-35" y="600" as="sourcePoint" />
            <mxPoint x="470" y="512" as="targetPoint" />
          </mxGeometry>
        </mxCell>
        <mxCell id="hyMspMxgV_skVNlcGcTQ-76" style="edgeStyle=orthogonalEdgeStyle;rounded=0;orthogonalLoop=1;jettySize=auto;html=1;exitX=0.5;exitY=0;exitDx=0;exitDy=0;entryX=0.5;entryY=1;entryDx=0;entryDy=0;dashed=1;endSize=15;endArrow=open;endFill=0;" edge="1" parent="1" source="hyMspMxgV_skVNlcGcTQ-19" target="hyMspMxgV_skVNlcGcTQ-55">
          <mxGeometry relative="1" as="geometry">
            <mxPoint x="410" y="670" as="sourcePoint" />
            <mxPoint x="795" y="580" as="targetPoint" />
          </mxGeometry>
        </mxCell>
        <mxCell id="hyMspMxgV_skVNlcGcTQ-81" value="&lt;div&gt;&lt;span style=&quot;font-weight: 400;&quot;&gt;&amp;lt;&amp;lt;utility&amp;gt;&amp;gt;&lt;/span&gt;&lt;/div&gt;DataBase" style="swimlane;fontStyle=1;align=center;verticalAlign=top;childLayout=stackLayout;horizontal=1;startSize=40;horizontalStack=0;resizeParent=1;resizeParentMax=0;resizeLast=0;collapsible=1;marginBottom=0;whiteSpace=wrap;html=1;" vertex="1" parent="1">
          <mxGeometry x="-140" y="660" width="393.75" height="100" as="geometry" />
        </mxCell>
        <mxCell id="hyMspMxgV_skVNlcGcTQ-83" value="" style="line;strokeWidth=1;fillColor=none;align=left;verticalAlign=middle;spacingTop=-1;spacingLeft=3;spacingRight=3;rotatable=0;labelPosition=right;points=[];portConstraint=eastwest;strokeColor=inherit;" vertex="1" parent="hyMspMxgV_skVNlcGcTQ-81">
          <mxGeometry y="40" width="393.75" height="8" as="geometry" />
        </mxCell>
        <mxCell id="hyMspMxgV_skVNlcGcTQ-84" value="+ connect(name, user, host, password, port&lt;span style=&quot;background-color: transparent; color: light-dark(rgb(0, 0, 0), rgb(255, 255, 255));&quot;&gt;): bool&lt;/span&gt;" style="text;strokeColor=none;fillColor=none;align=left;verticalAlign=top;spacingLeft=4;spacingRight=4;overflow=hidden;rotatable=0;points=[[0,0.5],[1,0.5]];portConstraint=eastwest;whiteSpace=wrap;html=1;" vertex="1" parent="hyMspMxgV_skVNlcGcTQ-81">
          <mxGeometry y="48" width="393.75" height="26" as="geometry" />
        </mxCell>
        <mxCell id="hyMspMxgV_skVNlcGcTQ-89" value="+ request(string): string" style="text;strokeColor=none;fillColor=none;align=left;verticalAlign=top;spacingLeft=4;spacingRight=4;overflow=hidden;rotatable=0;points=[[0,0.5],[1,0.5]];portConstraint=eastwest;whiteSpace=wrap;html=1;" vertex="1" parent="hyMspMxgV_skVNlcGcTQ-81">
          <mxGeometry y="74" width="393.75" height="26" as="geometry" />
        </mxCell>
        <mxCell id="hyMspMxgV_skVNlcGcTQ-90" value="&lt;div&gt;&lt;span style=&quot;font-weight: 400;&quot;&gt;&amp;lt;&amp;lt;utility&amp;gt;&amp;gt;&lt;/span&gt;&lt;/div&gt;UserSFM" style="swimlane;fontStyle=1;align=center;verticalAlign=top;childLayout=stackLayout;horizontal=1;startSize=40;horizontalStack=0;resizeParent=1;resizeParentMax=0;resizeLast=0;collapsible=1;marginBottom=0;whiteSpace=wrap;html=1;" vertex="1" parent="1">
          <mxGeometry x="760" y="660" width="290" height="152" as="geometry" />
        </mxCell>
        <mxCell id="hyMspMxgV_skVNlcGcTQ-91" value="- states: map&amp;lt;string, string&amp;gt;" style="text;strokeColor=none;fillColor=none;align=left;verticalAlign=top;spacingLeft=4;spacingRight=4;overflow=hidden;rotatable=0;points=[[0,0.5],[1,0.5]];portConstraint=eastwest;whiteSpace=wrap;html=1;" vertex="1" parent="hyMspMxgV_skVNlcGcTQ-90">
          <mxGeometry y="40" width="290" height="26" as="geometry" />
        </mxCell>
        <mxCell id="hyMspMxgV_skVNlcGcTQ-94" value="- isFree: atomic" style="text;strokeColor=none;fillColor=none;align=left;verticalAlign=top;spacingLeft=4;spacingRight=4;overflow=hidden;rotatable=0;points=[[0,0.5],[1,0.5]];portConstraint=eastwest;whiteSpace=wrap;html=1;" vertex="1" parent="hyMspMxgV_skVNlcGcTQ-90">
          <mxGeometry y="66" width="290" height="26" as="geometry" />
        </mxCell>
        <mxCell id="hyMspMxgV_skVNlcGcTQ-92" value="" style="line;strokeWidth=1;fillColor=none;align=left;verticalAlign=middle;spacingTop=-1;spacingLeft=3;spacingRight=3;rotatable=0;labelPosition=right;points=[];portConstraint=eastwest;strokeColor=inherit;" vertex="1" parent="hyMspMxgV_skVNlcGcTQ-90">
          <mxGeometry y="92" width="290" height="8" as="geometry" />
        </mxCell>
        <mxCell id="hyMspMxgV_skVNlcGcTQ-93" value="+ getState(user: string): string" style="text;strokeColor=none;fillColor=none;align=left;verticalAlign=top;spacingLeft=4;spacingRight=4;overflow=hidden;rotatable=0;points=[[0,0.5],[1,0.5]];portConstraint=eastwest;whiteSpace=wrap;html=1;" vertex="1" parent="hyMspMxgV_skVNlcGcTQ-90">
          <mxGeometry y="100" width="290" height="26" as="geometry" />
        </mxCell>
        <mxCell id="hyMspMxgV_skVNlcGcTQ-95" value="+ setState(user: string): string" style="text;strokeColor=none;fillColor=none;align=left;verticalAlign=top;spacingLeft=4;spacingRight=4;overflow=hidden;rotatable=0;points=[[0,0.5],[1,0.5]];portConstraint=eastwest;whiteSpace=wrap;html=1;" vertex="1" parent="hyMspMxgV_skVNlcGcTQ-90">
          <mxGeometry y="126" width="290" height="26" as="geometry" />
        </mxCell>
        <mxCell id="hyMspMxgV_skVNlcGcTQ-103" style="edgeStyle=orthogonalEdgeStyle;rounded=0;orthogonalLoop=1;jettySize=auto;html=1;endArrow=diamondThin;endFill=1;endSize=15;entryX=1;entryY=0.5;entryDx=0;entryDy=0;" edge="1" parent="1" source="hyMspMxgV_skVNlcGcTQ-98" target="hyMspMxgV_skVNlcGcTQ-112">
          <mxGeometry relative="1" as="geometry">
            <Array as="points">
              <mxPoint x="540" y="713" />
            </Array>
          </mxGeometry>
        </mxCell>
        <mxCell id="hyMspMxgV_skVNlcGcTQ-98" value="Node" style="swimlane;fontStyle=1;align=center;verticalAlign=top;childLayout=stackLayout;horizontal=1;startSize=26;horizontalStack=0;resizeParent=1;resizeParentMax=0;resizeLast=0;collapsible=1;marginBottom=0;whiteSpace=wrap;html=1;" vertex="1" parent="1">
          <mxGeometry x="520" y="660" width="160" height="86" as="geometry" />
        </mxCell>
        <mxCell id="hyMspMxgV_skVNlcGcTQ-102" value="+ next[256]: *Node&lt;span style=&quot;background-color: transparent; color: light-dark(rgb(0, 0, 0), rgb(255, 255, 255));&quot;&gt;&amp;nbsp;&lt;/span&gt;" style="text;strokeColor=none;fillColor=none;align=left;verticalAlign=top;spacingLeft=4;spacingRight=4;overflow=hidden;rotatable=0;points=[[0,0.5],[1,0.5]];portConstraint=eastwest;whiteSpace=wrap;html=1;" vertex="1" parent="hyMspMxgV_skVNlcGcTQ-98">
          <mxGeometry y="26" width="160" height="26" as="geometry" />
        </mxCell>
        <mxCell id="hyMspMxgV_skVNlcGcTQ-99" value="+ id: *string&lt;span style=&quot;background-color: transparent; color: light-dark(rgb(0, 0, 0), rgb(255, 255, 255));&quot;&gt;&amp;nbsp;&lt;/span&gt;" style="text;strokeColor=none;fillColor=none;align=left;verticalAlign=top;spacingLeft=4;spacingRight=4;overflow=hidden;rotatable=0;points=[[0,0.5],[1,0.5]];portConstraint=eastwest;whiteSpace=wrap;html=1;" vertex="1" parent="hyMspMxgV_skVNlcGcTQ-98">
          <mxGeometry y="52" width="160" height="26" as="geometry" />
        </mxCell>
        <mxCell id="hyMspMxgV_skVNlcGcTQ-100" value="" style="line;strokeWidth=1;fillColor=none;align=left;verticalAlign=middle;spacingTop=-1;spacingLeft=3;spacingRight=3;rotatable=0;labelPosition=right;points=[];portConstraint=eastwest;strokeColor=inherit;" vertex="1" parent="hyMspMxgV_skVNlcGcTQ-98">
          <mxGeometry y="78" width="160" height="8" as="geometry" />
        </mxCell>
      </root>
    </mxGraphModel>
  </diagram>
</mxfile>
